<svg width="375" height="241" viewBox="0 0 375 241" fill="none" xmlns="http://www.w3.org/2000/svg">
<path d="M120.5 230.5C57.4099 260.709 16.8333 214.167 -1 230.5V1H375.5V209L342.5 230.5C265 259.5 274 157 120.5 230.5Z" fill="#053047"/>
<path d="M162 162C89.6 128.8 30.5 42 -1 62.5V0H375.5V76L360 87C311 115 252.5 203.5 162 162Z" fill="#053047"/>
<path fill-rule="evenodd" clip-rule="evenodd" d="M256.658 98C274.064 98 288 112.207 288 129.518C288 147.1 274.335 162 256.658 162C235.052 162 212 151.008 212 129.518C212 108.249 235.273 98 256.658 98Z" fill="#053047"/>
<path fill-rule="evenodd" clip-rule="evenodd" d="M307.147 146.03C318.129 145.434 327.306 153.922 330.674 164.392C334.01 174.763 331.007 186.345 322.161 192.703C313.444 198.969 301.354 198.243 293.057 191.43C285.938 185.583 287.62 175.377 290.35 166.579C293.249 157.237 297.381 146.559 307.147 146.03Z" fill="#800F2F"/>
<path fill-rule="evenodd" clip-rule="evenodd" d="M193.795 104.545C200.485 107.935 202.991 116.108 201.387 123.479C199.798 130.78 194.051 136.64 186.646 137.403C179.348 138.155 172.459 133.602 169.898 126.725C167.7 120.823 172.195 115.33 176.826 111.032C181.743 106.468 187.847 101.53 193.795 104.545Z" fill="#800F2F"/>
<path fill-rule="evenodd" clip-rule="evenodd" d="M298.795 32.5449C305.485 35.9348 307.991 44.1077 306.387 51.4788C304.798 58.7802 299.051 64.6397 291.646 65.403C284.348 66.1552 277.459 61.6025 274.898 54.7246C272.7 48.8228 277.195 43.3302 281.826 39.0318C286.743 34.4682 292.847 29.5303 298.795 32.5449Z" fill="#800F2F"/>
<path fill-rule="evenodd" clip-rule="evenodd" d="M325.577 44.8586C328.498 46.3391 329.593 49.9088 328.892 53.1282C328.198 56.3172 325.688 58.8764 322.454 59.2098C319.267 59.5383 316.258 57.5498 315.139 54.5458C314.179 51.9682 316.142 49.5692 318.165 47.6918C320.313 45.6986 322.979 43.5419 325.577 44.8586Z" fill="#800F2F" fill-opacity="0.5"/>
<path fill-rule="evenodd" clip-rule="evenodd" d="M42.59 181.298C41.602 186.343 35.5391 187.661 30.4146 188.122C25.7622 188.54 20.6676 187.653 18.6304 183.452C16.4644 178.985 18.0058 173.561 21.8036 170.365C25.1952 167.51 29.9101 168.588 33.8354 170.653C38.3319 173.018 43.5656 176.316 42.59 181.298Z" fill="#800F2F" fill-opacity="0.5"/>
<path fill-rule="evenodd" clip-rule="evenodd" d="M101.163 190.122C90.2607 196.536 77.9397 187.523 68.7292 178.839C60.3673 170.954 53.6884 160.125 58.1 149.518C62.7904 138.241 75.2923 132.229 87.3762 134.006C98.1673 135.593 103.875 146.035 106.479 156.631C109.461 168.77 111.929 183.789 101.163 190.122Z" fill="#800F2F"/>
</svg>
